# xmcd
#
# Track frame offsets:
#	150
#	16468
#	32868
#	50627
#	65556
#	81851
#	95873
#	111900
#	119652
#	137458
#	159162
#	175234
#	197178
#	217044
#	227932
#	246504
#	265489
#	279502
#	293089
#	305813
#	318300
#	338284
#
# Disc length: 4725 seconds
#
# Revision: 0
# Processed by: cddbd v1.4PL0 Copyright (c) Steve Scherf et al.
# Submitted via: dBpowerAMP V4.0
#
DISCID=55127316
DTITLE=Shania Twain - Gold 2000
DYEAR=2000
DGENRE=Country
TTITLE0=Don't Be Stupid
TTITLE1=When
TTITLE2=Man! I Feel Like A Woman
TTITLE3=You're Still The One (Single Version)
TTITLE4=That Don't Impress Me Much
TTITLE5=Still Under The Water
TTITLE6=Love Gets Me Every Time
TTITLE7=Amneri'Letter
TTITLE8=You Win My Love (Single Mix)
TTITLE9=The Woman In Me
TTITLE10=Honey I'm Home
TTITLE11=From This Moment On
TTITLE12=I'm Outta Here! (Single Mix)
TTITLE13=Dance With The One That Brought You
TTITLE14=Any Man Of Mine
TTITLE15=Home Ain't Where His Heart Is
TTITLE16=No One Needs To Know
TTITLE17=What Made You Say That
TTITLE18=You Lay a Whole Lot Of Love On Me
TTITLE19=God Ain't Gonna Getcha For That
TTITLE20=Whose Bad Have Your Boots Been Under
TTITLE21=You're Still The One (Live)
EXTD=
EXTT0=
EXTT1=
EXTT2=
EXTT3=
EXTT4=
EXTT5=
EXTT6=
EXTT7=
EXTT8=
EXTT9=
EXTT10=
EXTT11=
EXTT12=
EXTT13=
EXTT14=
EXTT15=
EXTT16=
EXTT17=
EXTT18=
EXTT19=
EXTT20=
EXTT21=
PLAYORDER=
